<mxfile host="app.diagrams.net" agent="Mozilla/5.0 (Windows NT 10.0; Win64; x64) AppleWebKit/537.36 (KHTML, like Gecko) Chrome/129.0.0.0 Safari/537.36" version="24.7.16">
  <diagram name="Page-1" id="A5qiEQNG05xFl2pAk-5K">
    <mxGraphModel dx="318" dy="1268" grid="1" gridSize="10" guides="1" tooltips="1" connect="1" arrows="1" fold="1" page="1" pageScale="1" pageWidth="850" pageHeight="1100" math="0" shadow="0">
      <root>
        <mxCell id="0" />
        <mxCell id="1" parent="0" />
        <mxCell id="y_f3S64EoXUV-YFIhzCu-1" value="&lt;pre style=&quot;background-color:#ffffff;color:#080808;font-family:&#39;JetBrains Mono&#39;,monospace;font-size:9.8pt;&quot;&gt;&lt;div&gt;&lt;pre style=&quot;font-family:&#39;JetBrains Mono&#39;,monospace;font-size:11.3pt;&quot;&gt;&lt;span style=&quot;color:#0033b3;&quot;&gt;&lt;br&gt;&lt;/span&gt;&lt;/pre&gt;&lt;pre style=&quot;font-family:&#39;JetBrains Mono&#39;,monospace;font-size:11.3pt;&quot;&gt;&lt;span style=&quot;color:#0033b3;&quot;&gt;interface &lt;/span&gt;&lt;span style=&quot;color:#000000;&quot;&gt;CatBehavior &lt;/span&gt;{&lt;br&gt;    &lt;span style=&quot;color:#0033b3;&quot;&gt;void &lt;/span&gt;&lt;span style=&quot;color:#00627a;&quot;&gt;chaseMouse&lt;/span&gt;();&lt;br&gt;}&lt;/pre&gt;&lt;/div&gt;&lt;/pre&gt;" style="rounded=0;whiteSpace=wrap;html=1;align=left;glass=0;shadow=1;strokeColor=#E6E6E6;" parent="1" vertex="1">
          <mxGeometry x="10" y="-1040" width="390" height="90" as="geometry" />
        </mxCell>
        <mxCell id="sWZ7ArFnYA480n6tyxA3-163" value="&lt;font face=&quot;Comic Sans MS&quot;&gt;Commit Hash&lt;/font&gt;" style="rounded=0;whiteSpace=wrap;html=1;align=left;glass=0;shadow=1;strokeColor=#E6E6E6;verticalAlign=middle;fontFamily=Helvetica;fontSize=12;fontColor=#0066cc;fillColor=default;" parent="1" vertex="1">
          <mxGeometry x="420" y="-1050" width="90" height="20" as="geometry" />
        </mxCell>
        <mxCell id="sWZ7ArFnYA480n6tyxA3-164" value="&lt;font face=&quot;Comic Sans MS&quot;&gt;&lt;span style=&quot;white-space: pre;&quot;&gt;&#x9;&lt;/span&gt;&lt;span style=&quot;white-space: pre;&quot;&gt;&#x9;&lt;/span&gt;&lt;span style=&quot;white-space: pre;&quot;&gt;&#x9;&lt;/span&gt;&lt;span style=&quot;white-space: pre;&quot;&gt;&#x9;&lt;/span&gt;Files Modified&lt;/font&gt;" style="rounded=0;whiteSpace=wrap;html=1;align=left;glass=0;shadow=1;strokeColor=#E6E6E6;fontColor=#0066CC;" parent="1" vertex="1">
          <mxGeometry x="510" y="-1050" width="310" height="20" as="geometry" />
        </mxCell>
        <mxCell id="sWZ7ArFnYA480n6tyxA3-179" value="&lt;font face=&quot;Times New Roman&quot; style=&quot;font-size: 15px;&quot;&gt;&lt;code style=&quot;font-size: 15px;&quot;&gt;House.java,&amp;nbsp; &amp;nbsp;&lt;/code&gt;&amp;nbsp;&lt;code style=&quot;font-size: 15px;&quot;&gt;OrangeCat.java&lt;/code&gt;&lt;/font&gt;" style="strokeColor=none;fillColor=none;fontSize=15;fontColor=#000000;align=left;html=1;sketch=1;hachureGap=4;pointerEvents=0;fontFamily=Architects Daughter;fontSource=https%3A%2F%2Ffonts.googleapis.com%2Fcss%3Ffamily%3DArchitects%2BDaughter;" parent="1" vertex="1">
          <mxGeometry x="507.5" y="-1020" width="240" height="20" as="geometry" />
        </mxCell>
        <mxCell id="sWZ7ArFnYA480n6tyxA3-184" value="&lt;font face=&quot;Times New Roman&quot; style=&quot;font-size: 15px;&quot;&gt;#5d2e3c4&lt;/font&gt;" style="strokeColor=none;fillColor=none;fontSize=15;fontColor=#000000;align=left;html=1;sketch=1;hachureGap=4;pointerEvents=0;fontFamily=Architects Daughter;fontSource=https%3A%2F%2Ffonts.googleapis.com%2Fcss%3Ffamily%3DArchitects%2BDaughter;" parent="1" vertex="1">
          <mxGeometry x="420" y="-1020" width="50" height="20" as="geometry" />
        </mxCell>
        <mxCell id="sWZ7ArFnYA480n6tyxA3-192" value="#4b1f9d8" style="strokeColor=none;fillColor=none;fontSize=15;fontColor=#000000;align=left;html=1;sketch=1;hachureGap=4;pointerEvents=0;fontFamily=Times New Roman;" parent="1" vertex="1">
          <mxGeometry x="420" y="-1000" width="50" height="20" as="geometry" />
        </mxCell>
        <mxCell id="sWZ7ArFnYA480n6tyxA3-200" value="#3c9a7b1" style="strokeColor=none;fillColor=none;fontSize=15;fontColor=#000000;align=left;html=1;sketch=1;hachureGap=4;pointerEvents=0;fontFamily=Times New Roman;" parent="1" vertex="1">
          <mxGeometry x="420" y="-980" width="50" height="20" as="geometry" />
        </mxCell>
        <mxCell id="sWZ7ArFnYA480n6tyxA3-211" value="" style="shape=line;strokeWidth=2;html=1;strokeColor=#DFE1E5;resizeWidth=1;sketch=1;hachureGap=4;pointerEvents=0;fontFamily=Architects Daughter;fontSource=https%3A%2F%2Ffonts.googleapis.com%2Fcss%3Ffamily%3DArchitects%2BDaughter;fontSize=20;" parent="1" vertex="1">
          <mxGeometry x="417.5" y="-925" width="410" height="10" as="geometry" />
        </mxCell>
        <mxCell id="sWZ7ArFnYA480n6tyxA3-215" value="#2e4a6d2" style="strokeColor=none;fillColor=none;fontSize=15;fontColor=#000000;align=left;html=1;sketch=1;hachureGap=4;pointerEvents=0;fontFamily=Times New Roman;" parent="1" vertex="1">
          <mxGeometry x="420" y="-960" width="50" height="20" as="geometry" />
        </mxCell>
        <mxCell id="sWZ7ArFnYA480n6tyxA3-219" value="&lt;font style=&quot;font-size: 15px;&quot;&gt;&lt;code style=&quot;font-size: 15px;&quot;&gt;OrangeCat.java,&amp;nbsp;&lt;/code&gt;&amp;nbsp;&lt;code style=&quot;font-size: 15px;&quot;&gt;CatBehavior.java&lt;/code&gt;&lt;/font&gt;" style="strokeColor=none;fillColor=none;fontSize=15;fontColor=#000000;align=left;html=1;sketch=1;hachureGap=4;pointerEvents=0;fontFamily=Times New Roman;" parent="1" vertex="1">
          <mxGeometry x="507.5" y="-1000" width="240" height="20" as="geometry" />
        </mxCell>
        <mxCell id="sWZ7ArFnYA480n6tyxA3-224" value="&lt;code style=&quot;font-size: 15px;&quot;&gt;OrangeCat.java&lt;/code&gt;,&amp;nbsp;&amp;nbsp;&lt;code style=&quot;font-size: 15px;&quot;&gt;CatBehavior.java&lt;/code&gt;" style="strokeColor=none;fillColor=none;fontSize=15;fontColor=#000000;align=left;html=1;sketch=1;hachureGap=4;pointerEvents=0;fontFamily=Times New Roman;" parent="1" vertex="1">
          <mxGeometry x="507.5" y="-960" width="240" height="20" as="geometry" />
        </mxCell>
        <mxCell id="sWZ7ArFnYA480n6tyxA3-228" value="&lt;font color=&quot;#0066cc&quot; face=&quot;Comic Sans MS&quot;&gt;CatBehavior.java&lt;/font&gt;" style="rounded=0;whiteSpace=wrap;html=1;align=left;glass=0;shadow=1;strokeColor=#E6E6E6;fontColor=#66c6f0;" parent="1" vertex="1">
          <mxGeometry x="10" y="-1040" width="390" height="20" as="geometry" />
        </mxCell>
        <mxCell id="sWZ7ArFnYA480n6tyxA3-230" value="House" style="strokeWidth=2;html=1;shape=mxgraph.flowchart.start_2;whiteSpace=wrap;shadow=1;strokeColor=#999999;" parent="1" vertex="1">
          <mxGeometry x="470" y="-850" width="100" height="50" as="geometry" />
        </mxCell>
        <mxCell id="sWZ7ArFnYA480n6tyxA3-233" value="&lt;pre style=&quot;background-color: rgb(255, 255, 255); font-family: &amp;quot;JetBrains Mono&amp;quot;, monospace; font-size: 9.8pt;&quot;&gt;&lt;pre style=&quot;font-family: &amp;quot;JetBrains Mono&amp;quot;, monospace; font-size: 11.3pt;&quot;&gt;&lt;div style=&quot;&quot;&gt;&lt;pre style=&quot;font-family: &amp;quot;JetBrains Mono&amp;quot;, monospace; font-size: 11.3pt;&quot;&gt;&lt;span style=&quot;color: rgb(0, 51, 179);&quot;&gt;class &lt;/span&gt;&lt;span style=&quot;color: rgb(0, 0, 0);&quot;&gt;OrangeCat &lt;/span&gt;&lt;span style=&quot;color: rgb(0, 51, 179);&quot;&gt;implements &lt;/span&gt;&lt;span style=&quot;color: rgb(0, 0, 0);&quot;&gt;CatBehavior &lt;/span&gt;&lt;font color=&quot;#080808&quot;&gt;{&lt;/font&gt;&lt;font color=&quot;#080808&quot;&gt;&lt;br&gt;    &lt;/font&gt;&lt;span style=&quot;color: rgb(158, 136, 13);&quot;&gt;@Override&lt;br&gt;&lt;/span&gt;&lt;span style=&quot;color: rgb(158, 136, 13);&quot;&gt;    &lt;/span&gt;&lt;span style=&quot;color: rgb(0, 51, 179);&quot;&gt;public void &lt;/span&gt;&lt;span style=&quot;color: rgb(0, 98, 122);&quot;&gt;chaseMouse&lt;/span&gt;&lt;font color=&quot;#080808&quot;&gt;() {&lt;br&gt;&lt;/font&gt;&lt;font color=&quot;#080808&quot;&gt;&lt;span style=&quot;white-space: pre;&quot;&gt;&#x9;&lt;/span&gt;&lt;/font&gt;System&lt;span style=&quot;font-size: 11.3pt; color: rgb(8, 8, 8); white-space: normal;&quot;&gt;.&lt;/span&gt;&lt;span style=&quot;font-size: 11.3pt; white-space: normal; color: rgb(135, 16, 148); font-style: italic;&quot;&gt;out&lt;/span&gt;&lt;span style=&quot;font-size: 11.3pt; color: rgb(8, 8, 8); white-space: normal;&quot;&gt;.println(&lt;/span&gt;&lt;span style=&quot;font-size: 11.3pt; white-space: normal; color: rgb(6, 125, 23);&quot;&gt;&quot;Cat is chasing a mouse!&quot;&lt;/span&gt;&lt;span style=&quot;font-size: 11.3pt; color: rgb(8, 8, 8); white-space: normal;&quot;&gt;);&lt;/span&gt;&lt;/pre&gt;&lt;pre style=&quot;font-family: &amp;quot;JetBrains Mono&amp;quot;, monospace; font-size: 11.3pt;&quot;&gt;&lt;font color=&quot;#080808&quot;&gt;    }&lt;br&gt;    &lt;/font&gt;&lt;span style=&quot;color: rgb(0, 51, 179);&quot;&gt;public void &lt;/span&gt;&lt;span style=&quot;color: rgb(0, 98, 122);&quot;&gt;sleep&lt;/span&gt;&lt;font color=&quot;#080808&quot;&gt;() {&lt;br&gt;        &lt;/font&gt;System&lt;span style=&quot;font-size: 11.3pt; color: rgb(8, 8, 8); white-space: normal;&quot;&gt;.&lt;/span&gt;&lt;span style=&quot;font-size: 11.3pt; white-space: normal; color: rgb(135, 16, 148); font-style: italic;&quot;&gt;out&lt;/span&gt;&lt;span style=&quot;font-size: 11.3pt; color: rgb(8, 8, 8); white-space: normal;&quot;&gt;.println(&lt;/span&gt;&lt;span style=&quot;font-size: 11.3pt; white-space: normal; color: rgb(6, 125, 23);&quot;&gt;&quot;Cat sleeping.&quot;&lt;/span&gt;&lt;span style=&quot;font-size: 11.3pt; color: rgb(8, 8, 8); white-space: normal;&quot;&gt;);&lt;/span&gt;&lt;font color=&quot;#080808&quot;&gt;&lt;br&gt;&lt;/font&gt;&lt;font color=&quot;#080808&quot;&gt;    }&lt;br&gt;}&lt;/font&gt;&lt;/pre&gt;&lt;/div&gt;&lt;/pre&gt;&lt;/pre&gt;" style="rounded=0;whiteSpace=wrap;html=1;align=left;glass=0;shadow=1;strokeColor=#E6E6E6;" parent="1" vertex="1">
          <mxGeometry x="10" y="-930" width="390" height="250" as="geometry" />
        </mxCell>
        <mxCell id="sWZ7ArFnYA480n6tyxA3-234" value="&lt;font color=&quot;#0066cc&quot; face=&quot;Comic Sans MS&quot;&gt;OrangeCat.java&lt;/font&gt;" style="rounded=0;whiteSpace=wrap;html=1;align=left;glass=0;shadow=1;strokeColor=#E6E6E6;fontColor=#66c6f0;" parent="1" vertex="1">
          <mxGeometry x="10" y="-930" width="390" height="20" as="geometry" />
        </mxCell>
        <mxCell id="sWZ7ArFnYA480n6tyxA3-236" value="&lt;pre style=&quot;background-color: rgb(255, 255, 255); font-family: &amp;quot;JetBrains Mono&amp;quot;, monospace; font-size: 9.8pt;&quot;&gt;&lt;pre style=&quot;font-family: &amp;quot;JetBrains Mono&amp;quot;, monospace; font-size: 11.3pt;&quot;&gt;&lt;div style=&quot;&quot;&gt;&lt;pre style=&quot;font-family: &amp;quot;JetBrains Mono&amp;quot;, monospace; font-size: 11.3pt;&quot;&gt;&lt;div style=&quot;color: rgb(8, 8, 8);&quot;&gt;&lt;pre style=&quot;font-family:&#39;JetBrains Mono&#39;,monospace;font-size:11.3pt;&quot;&gt;&lt;span style=&quot;color:#0033b3;&quot;&gt;&lt;br&gt;&lt;/span&gt;&lt;/pre&gt;&lt;pre style=&quot;font-family:&#39;JetBrains Mono&#39;,monospace;font-size:11.3pt;&quot;&gt;&lt;span style=&quot;color:#0033b3;&quot;&gt;class &lt;/span&gt;&lt;span style=&quot;color:#000000;&quot;&gt;House &lt;/span&gt;{&lt;br&gt;    &lt;span style=&quot;color:#0033b3;&quot;&gt;private &lt;/span&gt;&lt;span style=&quot;color:#000000;&quot;&gt;CatBehavior &lt;/span&gt;&lt;span style=&quot;color:#871094;&quot;&gt;houseCat&lt;/span&gt;;&lt;br&gt;&lt;br&gt;    &lt;span style=&quot;color:#0033b3;&quot;&gt;public &lt;/span&gt;&lt;span style=&quot;color:#00627a;&quot;&gt;House&lt;/span&gt;(&lt;span style=&quot;color:#000000;&quot;&gt;CatBehavior houseCat&lt;/span&gt;) {&lt;br&gt;        &lt;span style=&quot;color:#0033b3;&quot;&gt;this&lt;/span&gt;.&lt;span style=&quot;color:#871094;&quot;&gt;houseCat &lt;/span&gt;= &lt;span style=&quot;color:#000000;&quot;&gt;houseCat&lt;/span&gt;;&lt;br&gt;    }&lt;br&gt;    &lt;span style=&quot;color:#0033b3;&quot;&gt;public void &lt;/span&gt;&lt;span style=&quot;color:#00627a;&quot;&gt;letCatChaseMouse&lt;/span&gt;() {&lt;br&gt;        &lt;span style=&quot;color:#871094;&quot;&gt;houseCat&lt;/span&gt;.chaseMouse();&lt;br&gt;    }&lt;br&gt;}&lt;/pre&gt;&lt;/div&gt;&lt;/pre&gt;&lt;/div&gt;&lt;/pre&gt;&lt;/pre&gt;" style="rounded=0;whiteSpace=wrap;html=1;align=left;glass=0;shadow=1;strokeColor=#E6E6E6;" parent="1" vertex="1">
          <mxGeometry x="10" y="-660" width="390" height="220" as="geometry" />
        </mxCell>
        <mxCell id="sWZ7ArFnYA480n6tyxA3-237" value="&lt;font color=&quot;#0066cc&quot; face=&quot;Comic Sans MS&quot;&gt;House.java&lt;/font&gt;" style="rounded=0;whiteSpace=wrap;html=1;align=left;glass=0;shadow=1;strokeColor=#E6E6E6;fontColor=#66c6f0;" parent="1" vertex="1">
          <mxGeometry x="10" y="-660" width="390" height="20" as="geometry" />
        </mxCell>
        <mxCell id="sWZ7ArFnYA480n6tyxA3-239" value="OrangeCat" style="strokeWidth=2;html=1;shape=mxgraph.flowchart.start_2;whiteSpace=wrap;shadow=1;strokeColor=#999999;" parent="1" vertex="1">
          <mxGeometry x="665" y="-850" width="100" height="50" as="geometry" />
        </mxCell>
        <mxCell id="sWZ7ArFnYA480n6tyxA3-240" value="CatBehavior" style="strokeWidth=2;html=1;shape=mxgraph.flowchart.start_2;whiteSpace=wrap;shadow=1;strokeColor=#999999;" parent="1" vertex="1">
          <mxGeometry x="570" y="-760" width="100" height="50" as="geometry" />
        </mxCell>
        <mxCell id="sWZ7ArFnYA480n6tyxA3-244" value="&lt;b&gt;File system&lt;/b&gt;" style="rounded=1;whiteSpace=wrap;html=1;fillColor=#fff2cc;strokeColor=#d6b656;" parent="1" vertex="1">
          <mxGeometry x="10" y="-1080" width="390" height="20" as="geometry" />
        </mxCell>
        <mxCell id="sWZ7ArFnYA480n6tyxA3-245" value="&lt;b&gt;Version control system&lt;/b&gt;" style="rounded=1;whiteSpace=wrap;html=1;fillColor=#fff2cc;strokeColor=#d6b656;" parent="1" vertex="1">
          <mxGeometry x="425" y="-1080" width="390" height="20" as="geometry" />
        </mxCell>
        <mxCell id="sWZ7ArFnYA480n6tyxA3-246" value="&lt;b&gt;Co-changes extracted&lt;/b&gt;" style="rounded=1;whiteSpace=wrap;html=1;fillColor=#fff2cc;strokeColor=#d6b656;" parent="1" vertex="1">
          <mxGeometry x="425" y="-890" width="390" height="20" as="geometry" />
        </mxCell>
        <mxCell id="sWZ7ArFnYA480n6tyxA3-247" value="&lt;b&gt;Logical dependencies (LD) - with 60% strength filter&lt;/b&gt;" style="rounded=1;whiteSpace=wrap;html=1;fillColor=#fff2cc;strokeColor=#d6b656;" parent="1" vertex="1">
          <mxGeometry x="425" y="-680" width="390" height="20" as="geometry" />
        </mxCell>
        <mxCell id="sWZ7ArFnYA480n6tyxA3-249" value="House" style="strokeWidth=2;html=1;shape=mxgraph.flowchart.start_2;whiteSpace=wrap;shadow=1;strokeColor=#999999;" parent="1" vertex="1">
          <mxGeometry x="540" y="-630" width="100" height="50" as="geometry" />
        </mxCell>
        <mxCell id="sWZ7ArFnYA480n6tyxA3-250" value="OrangeCat" style="strokeWidth=2;html=1;shape=mxgraph.flowchart.start_2;whiteSpace=wrap;shadow=1;strokeColor=#999999;" parent="1" vertex="1">
          <mxGeometry x="730" y="-630" width="100" height="50" as="geometry" />
        </mxCell>
        <mxCell id="sWZ7ArFnYA480n6tyxA3-251" value="CatBehavior" style="strokeWidth=2;html=1;shape=mxgraph.flowchart.start_2;whiteSpace=wrap;shadow=1;strokeColor=#999999;" parent="1" vertex="1">
          <mxGeometry x="640" y="-540" width="100" height="50" as="geometry" />
        </mxCell>
        <mxCell id="sWZ7ArFnYA480n6tyxA3-262" value="&lt;b&gt;&lt;font style=&quot;font-size: 16px;&quot;&gt;2&lt;/font&gt;&lt;/b&gt;" style="text;html=1;align=center;verticalAlign=middle;resizable=0;points=[];autosize=1;strokeColor=none;fillColor=none;" parent="1" vertex="1">
          <mxGeometry x="600" y="-850" width="30" height="30" as="geometry" />
        </mxCell>
        <mxCell id="sWZ7ArFnYA480n6tyxA3-264" value="&lt;font face=&quot;Times New Roman&quot; style=&quot;font-size: 15px;&quot;&gt;&lt;code style=&quot;font-size: 15px;&quot;&gt;House.java,&amp;nbsp;&lt;/code&gt;&lt;code style=&quot;font-size: 15px;&quot;&gt;OrangeCat.java, C&lt;/code&gt;&lt;/font&gt;&lt;span style=&quot;font-family: monospace;&quot;&gt;atBehavior&lt;/span&gt;&lt;font face=&quot;Times New Roman&quot; style=&quot;font-size: 15px;&quot;&gt;&lt;code style=&quot;font-size: 15px;&quot;&gt;&amp;nbsp;&lt;/code&gt;&lt;/font&gt;" style="strokeColor=none;fillColor=none;fontSize=15;fontColor=#000000;align=left;html=1;sketch=1;hachureGap=4;pointerEvents=0;fontFamily=Architects Daughter;fontSource=https%3A%2F%2Ffonts.googleapis.com%2Fcss%3Ffamily%3DArchitects%2BDaughter;" parent="1" vertex="1">
          <mxGeometry x="507.5" y="-980" width="240" height="20" as="geometry" />
        </mxCell>
        <mxCell id="sWZ7ArFnYA480n6tyxA3-272" value="&lt;b&gt;&lt;font style=&quot;font-size: 15px;&quot;&gt;3&lt;/font&gt;&lt;/b&gt;" style="text;html=1;align=center;verticalAlign=middle;resizable=0;points=[];autosize=1;strokeColor=none;fillColor=none;" parent="1" vertex="1">
          <mxGeometry x="682.5" y="-780" width="30" height="30" as="geometry" />
        </mxCell>
        <mxCell id="sWZ7ArFnYA480n6tyxA3-282" value="&lt;b&gt;&lt;font style=&quot;font-size: 15px;&quot;&gt;1&lt;/font&gt;&lt;/b&gt;" style="text;html=1;align=center;verticalAlign=middle;resizable=0;points=[];autosize=1;strokeColor=none;fillColor=none;" parent="1" vertex="1">
          <mxGeometry x="520" y="-780" width="30" height="30" as="geometry" />
        </mxCell>
        <mxCell id="4s18IUHOSjI8h1o8mU8m-2" value="&lt;b&gt;&lt;font style=&quot;font-size: 15px;&quot;&gt;3&lt;/font&gt;&lt;/b&gt;" style="text;html=1;align=center;verticalAlign=middle;resizable=0;points=[];autosize=1;strokeColor=none;fillColor=none;" parent="1" vertex="1">
          <mxGeometry x="757.5" y="-550" width="30" height="30" as="geometry" />
        </mxCell>
        <mxCell id="4s18IUHOSjI8h1o8mU8m-3" value="" style="endArrow=classic;html=1;rounded=0;exitX=0.5;exitY=1;exitDx=0;exitDy=0;exitPerimeter=0;entryX=0.855;entryY=0.145;entryDx=0;entryDy=0;entryPerimeter=0;curved=1;" parent="1" target="sWZ7ArFnYA480n6tyxA3-251" edge="1">
          <mxGeometry width="50" height="50" relative="1" as="geometry">
            <mxPoint x="785" y="-580" as="sourcePoint" />
            <mxPoint x="497.5" y="-710" as="targetPoint" />
            <Array as="points">
              <mxPoint x="767.5" y="-540" />
            </Array>
          </mxGeometry>
        </mxCell>
        <mxCell id="4s18IUHOSjI8h1o8mU8m-6" value="&lt;b&gt;Structural dependencies (SD)&lt;/b&gt;" style="rounded=1;whiteSpace=wrap;html=1;fillColor=#fff2cc;strokeColor=#d6b656;" parent="1" vertex="1">
          <mxGeometry x="10" y="-420" width="390" height="20" as="geometry" />
        </mxCell>
        <mxCell id="4s18IUHOSjI8h1o8mU8m-7" value="House" style="strokeWidth=2;html=1;shape=mxgraph.flowchart.start_2;whiteSpace=wrap;shadow=1;strokeColor=#999999;" parent="1" vertex="1">
          <mxGeometry x="80" y="-390" width="100" height="50" as="geometry" />
        </mxCell>
        <mxCell id="4s18IUHOSjI8h1o8mU8m-8" value="OrangeCat" style="strokeWidth=2;html=1;shape=mxgraph.flowchart.start_2;whiteSpace=wrap;shadow=1;strokeColor=#999999;" parent="1" vertex="1">
          <mxGeometry x="250" y="-390" width="100" height="50" as="geometry" />
        </mxCell>
        <mxCell id="4s18IUHOSjI8h1o8mU8m-9" value="CatBehavior" style="strokeWidth=2;html=1;shape=mxgraph.flowchart.start_2;whiteSpace=wrap;shadow=1;strokeColor=#999999;" parent="1" vertex="1">
          <mxGeometry x="157.5" y="-320" width="100" height="50" as="geometry" />
        </mxCell>
        <mxCell id="4s18IUHOSjI8h1o8mU8m-10" value="&lt;b&gt;&lt;font style=&quot;font-size: 15px;&quot;&gt;4&lt;/font&gt;&lt;/b&gt;" style="text;html=1;align=center;verticalAlign=middle;resizable=0;points=[];autosize=1;strokeColor=none;fillColor=none;" parent="1" vertex="1">
          <mxGeometry x="270" y="-330" width="30" height="30" as="geometry" />
        </mxCell>
        <mxCell id="4s18IUHOSjI8h1o8mU8m-13" value="&lt;b&gt;&lt;font style=&quot;font-size: 15px;&quot;&gt;8&lt;/font&gt;&lt;/b&gt;" style="text;html=1;align=center;verticalAlign=middle;resizable=0;points=[];autosize=1;strokeColor=none;fillColor=none;" parent="1" vertex="1">
          <mxGeometry x="127.5" y="-330" width="30" height="30" as="geometry" />
        </mxCell>
        <mxCell id="4s18IUHOSjI8h1o8mU8m-14" value="" style="curved=1;endArrow=classic;html=1;rounded=0;exitX=0.855;exitY=0.145;exitDx=0;exitDy=0;exitPerimeter=0;entryX=0.145;entryY=0.145;entryDx=0;entryDy=0;entryPerimeter=0;" parent="1" target="sWZ7ArFnYA480n6tyxA3-250" edge="1">
          <mxGeometry width="50" height="50" relative="1" as="geometry">
            <mxPoint x="627.9999999999998" y="-620.7499999999999" as="sourcePoint" />
            <mxPoint x="740" y="-630" as="targetPoint" />
            <Array as="points">
              <mxPoint x="642.5" y="-638" />
              <mxPoint x="705" y="-648" />
            </Array>
          </mxGeometry>
        </mxCell>
        <mxCell id="4s18IUHOSjI8h1o8mU8m-15" value="&lt;b&gt;&lt;font style=&quot;font-size: 16px;&quot;&gt;2&lt;/font&gt;&lt;/b&gt;" style="text;html=1;align=center;verticalAlign=middle;resizable=0;points=[];autosize=1;strokeColor=none;fillColor=none;" parent="1" vertex="1">
          <mxGeometry x="670" y="-650" width="30" height="30" as="geometry" />
        </mxCell>
        <mxCell id="4s18IUHOSjI8h1o8mU8m-16" value="&lt;b&gt;Logical dependencies (LD) and&amp;nbsp;&lt;/b&gt;&lt;b&gt;Structural dependencies (SD)&lt;/b&gt;" style="rounded=1;whiteSpace=wrap;html=1;fillColor=#fff2cc;strokeColor=#d6b656;" parent="1" vertex="1">
          <mxGeometry x="417.5" y="-420" width="390" height="20" as="geometry" />
        </mxCell>
        <mxCell id="4s18IUHOSjI8h1o8mU8m-17" value="House" style="strokeWidth=2;html=1;shape=mxgraph.flowchart.start_2;whiteSpace=wrap;shadow=1;strokeColor=#999999;" parent="1" vertex="1">
          <mxGeometry x="470" y="-390" width="100" height="50" as="geometry" />
        </mxCell>
        <mxCell id="4s18IUHOSjI8h1o8mU8m-18" value="OrangeCat" style="strokeWidth=2;html=1;shape=mxgraph.flowchart.start_2;whiteSpace=wrap;shadow=1;strokeColor=#999999;" parent="1" vertex="1">
          <mxGeometry x="665" y="-390" width="100" height="50" as="geometry" />
        </mxCell>
        <mxCell id="4s18IUHOSjI8h1o8mU8m-19" value="CatBehavior" style="strokeWidth=2;html=1;shape=mxgraph.flowchart.start_2;whiteSpace=wrap;shadow=1;strokeColor=#999999;" parent="1" vertex="1">
          <mxGeometry x="565" y="-320" width="100" height="50" as="geometry" />
        </mxCell>
        <mxCell id="4s18IUHOSjI8h1o8mU8m-20" value="&lt;b&gt;&lt;font style=&quot;font-size: 15px;&quot;&gt;7&lt;/font&gt;&lt;/b&gt;" style="text;html=1;align=center;verticalAlign=middle;resizable=0;points=[];autosize=1;strokeColor=none;fillColor=none;" parent="1" vertex="1">
          <mxGeometry x="690" y="-320" width="30" height="30" as="geometry" />
        </mxCell>
        <mxCell id="4s18IUHOSjI8h1o8mU8m-23" value="&lt;b&gt;&lt;font style=&quot;font-size: 16px;&quot;&gt;2&lt;/font&gt;&lt;/b&gt;" style="text;html=1;align=center;verticalAlign=middle;resizable=0;points=[];autosize=1;strokeColor=none;fillColor=none;" parent="1" vertex="1">
          <mxGeometry x="600" y="-370" width="30" height="30" as="geometry" />
        </mxCell>
        <mxCell id="4s18IUHOSjI8h1o8mU8m-28" value="&lt;b&gt;&lt;font style=&quot;font-size: 15px;&quot;&gt;8&lt;/font&gt;&lt;/b&gt;" style="text;html=1;align=center;verticalAlign=middle;resizable=0;points=[];autosize=1;strokeColor=none;fillColor=none;" parent="1" vertex="1">
          <mxGeometry x="507.5" y="-320" width="30" height="30" as="geometry" />
        </mxCell>
        <mxCell id="J_zF-gnnnVMiaLs1HceT-5" value="" style="endArrow=none;html=1;rounded=0;entryX=0.5;entryY=1;entryDx=0;entryDy=0;entryPerimeter=0;exitX=0.145;exitY=0.145;exitDx=0;exitDy=0;exitPerimeter=0;" parent="1" source="sWZ7ArFnYA480n6tyxA3-240" target="sWZ7ArFnYA480n6tyxA3-230" edge="1">
          <mxGeometry width="50" height="50" relative="1" as="geometry">
            <mxPoint x="400" y="-750" as="sourcePoint" />
            <mxPoint x="450" y="-800" as="targetPoint" />
          </mxGeometry>
        </mxCell>
        <mxCell id="J_zF-gnnnVMiaLs1HceT-6" value="" style="endArrow=none;html=1;rounded=0;entryX=0.5;entryY=1;entryDx=0;entryDy=0;entryPerimeter=0;exitX=0.855;exitY=0.145;exitDx=0;exitDy=0;exitPerimeter=0;" parent="1" source="sWZ7ArFnYA480n6tyxA3-240" target="sWZ7ArFnYA480n6tyxA3-239" edge="1">
          <mxGeometry width="50" height="50" relative="1" as="geometry">
            <mxPoint x="400" y="-750" as="sourcePoint" />
            <mxPoint x="450" y="-800" as="targetPoint" />
          </mxGeometry>
        </mxCell>
        <mxCell id="J_zF-gnnnVMiaLs1HceT-7" value="" style="endArrow=none;html=1;rounded=0;entryX=0;entryY=0.5;entryDx=0;entryDy=0;entryPerimeter=0;exitX=1;exitY=0.5;exitDx=0;exitDy=0;exitPerimeter=0;curved=1;" parent="1" source="sWZ7ArFnYA480n6tyxA3-230" target="sWZ7ArFnYA480n6tyxA3-239" edge="1">
          <mxGeometry width="50" height="50" relative="1" as="geometry">
            <mxPoint x="400" y="-750" as="sourcePoint" />
            <mxPoint x="450" y="-800" as="targetPoint" />
          </mxGeometry>
        </mxCell>
        <mxCell id="J_zF-gnnnVMiaLs1HceT-9" value="&lt;div style=&quot;text-align: left;&quot;&gt;Entity 1&amp;nbsp; &amp;nbsp; &amp;nbsp; &amp;nbsp; Entity 2&amp;nbsp; &amp;nbsp; &amp;nbsp; &amp;nbsp;Strength&lt;/div&gt;&lt;div style=&quot;text-align: left;&quot;&gt;---------------------------------------&lt;span style=&quot;background-color: initial;&quot;&gt;-----&lt;/span&gt;&lt;/div&gt;&lt;div style=&quot;text-align: left;&quot;&gt;&lt;font color=&quot;#00994d&quot;&gt;House&amp;nbsp; &amp;nbsp; &amp;nbsp; &amp;nbsp; &amp;nbsp; &amp;nbsp;OrangeCat&amp;nbsp; &amp;nbsp; &amp;nbsp;75.0&lt;/font&gt;&lt;font color=&quot;#006633&quot;&gt;&amp;nbsp; &lt;/font&gt;&amp;nbsp;&amp;nbsp;&lt;/div&gt;&lt;div style=&quot;text-align: left;&quot;&gt;House&amp;nbsp; &amp;nbsp; &amp;nbsp; &amp;nbsp; &amp;nbsp; &amp;nbsp;CatBehavior&amp;nbsp; &amp;nbsp;18.7&amp;nbsp; &amp;nbsp;&amp;nbsp;&lt;/div&gt;&lt;div style=&quot;text-align: left;&quot;&gt;OrangeCat&amp;nbsp; &amp;nbsp; House&amp;nbsp; &amp;nbsp; &amp;nbsp; &amp;nbsp; &amp;nbsp; &amp;nbsp; 37.5&amp;nbsp; &amp;nbsp;&amp;nbsp;&lt;/div&gt;&lt;div style=&quot;text-align: left;&quot;&gt;&lt;font color=&quot;#00994d&quot;&gt;OrangeCat&amp;nbsp; &amp;nbsp; CatBehavior&amp;nbsp; &amp;nbsp;84.3&amp;nbsp;&lt;/font&gt; &amp;nbsp;&amp;nbsp;&lt;/div&gt;&lt;div style=&quot;text-align: left;&quot;&gt;CatBehavior&amp;nbsp; House&amp;nbsp; &amp;nbsp; &amp;nbsp; &amp;nbsp; &amp;nbsp; &amp;nbsp; 12.5&amp;nbsp; &amp;nbsp;&amp;nbsp;&lt;/div&gt;&lt;div style=&quot;text-align: left;&quot;&gt;&lt;span style=&quot;background-color: initial;&quot;&gt;&lt;font color=&quot;#00994d&quot;&gt;CatBehavior&amp;nbsp; OrangeCat&amp;nbsp; &amp;nbsp; &amp;nbsp;100&amp;nbsp;&lt;/font&gt; &amp;nbsp;&lt;/span&gt;&lt;span style=&quot;background-color: initial;&quot;&gt;&amp;nbsp; &amp;nbsp;&lt;/span&gt;&lt;br&gt;&lt;/div&gt;" style="text;html=1;align=center;verticalAlign=middle;resizable=0;points=[];autosize=1;strokeColor=default;fillColor=none;" parent="1" vertex="1">
          <mxGeometry x="425" y="-560" width="210" height="130" as="geometry" />
        </mxCell>
        <mxCell id="J_zF-gnnnVMiaLs1HceT-10" value="" style="endArrow=classic;html=1;rounded=0;entryX=0.417;entryY=0.987;entryDx=0;entryDy=0;entryPerimeter=0;exitX=0.855;exitY=0.145;exitDx=0;exitDy=0;exitPerimeter=0;curved=1;" parent="1" source="sWZ7ArFnYA480n6tyxA3-251" target="sWZ7ArFnYA480n6tyxA3-250" edge="1">
          <mxGeometry width="50" height="50" relative="1" as="geometry">
            <mxPoint x="440" y="-550" as="sourcePoint" />
            <mxPoint x="490" y="-600" as="targetPoint" />
            <Array as="points">
              <mxPoint x="720" y="-560" />
            </Array>
          </mxGeometry>
        </mxCell>
        <mxCell id="J_zF-gnnnVMiaLs1HceT-11" value="&lt;b&gt;&lt;font style=&quot;font-size: 15px;&quot;&gt;3&lt;/font&gt;&lt;/b&gt;" style="text;html=1;align=center;verticalAlign=middle;resizable=0;points=[];autosize=1;strokeColor=none;fillColor=none;" parent="1" vertex="1">
          <mxGeometry x="710" y="-580" width="30" height="30" as="geometry" />
        </mxCell>
        <mxCell id="J_zF-gnnnVMiaLs1HceT-13" value="&lt;b&gt;&lt;font style=&quot;font-size: 15px;&quot;&gt;3&lt;/font&gt;&lt;/b&gt;" style="text;html=1;align=center;verticalAlign=middle;resizable=0;points=[];autosize=1;strokeColor=none;fillColor=none;" parent="1" vertex="1">
          <mxGeometry x="652.5" y="-340" width="30" height="30" as="geometry" />
        </mxCell>
        <mxCell id="J_zF-gnnnVMiaLs1HceT-17" value="" style="endArrow=classic;html=1;rounded=0;exitX=0.5;exitY=1;exitDx=0;exitDy=0;exitPerimeter=0;entryX=0.145;entryY=0.145;entryDx=0;entryDy=0;entryPerimeter=0;curved=1;" parent="1" source="4s18IUHOSjI8h1o8mU8m-7" target="4s18IUHOSjI8h1o8mU8m-9" edge="1">
          <mxGeometry width="50" height="50" relative="1" as="geometry">
            <mxPoint x="410" y="-350" as="sourcePoint" />
            <mxPoint x="460" y="-400" as="targetPoint" />
            <Array as="points">
              <mxPoint x="140" y="-320" />
            </Array>
          </mxGeometry>
        </mxCell>
        <mxCell id="J_zF-gnnnVMiaLs1HceT-18" value="" style="endArrow=classic;html=1;rounded=0;exitX=0.5;exitY=1;exitDx=0;exitDy=0;exitPerimeter=0;entryX=0.855;entryY=0.145;entryDx=0;entryDy=0;entryPerimeter=0;curved=1;" parent="1" source="4s18IUHOSjI8h1o8mU8m-8" target="4s18IUHOSjI8h1o8mU8m-9" edge="1">
          <mxGeometry width="50" height="50" relative="1" as="geometry">
            <mxPoint x="410" y="-350" as="sourcePoint" />
            <mxPoint x="460" y="-400" as="targetPoint" />
            <Array as="points">
              <mxPoint x="280" y="-320" />
            </Array>
          </mxGeometry>
        </mxCell>
        <mxCell id="J_zF-gnnnVMiaLs1HceT-19" value="" style="endArrow=classic;html=1;rounded=0;exitX=1;exitY=0.5;exitDx=0;exitDy=0;exitPerimeter=0;entryX=0;entryY=0.5;entryDx=0;entryDy=0;entryPerimeter=0;curved=1;" parent="1" source="4s18IUHOSjI8h1o8mU8m-17" target="4s18IUHOSjI8h1o8mU8m-18" edge="1">
          <mxGeometry width="50" height="50" relative="1" as="geometry">
            <mxPoint x="410" y="-350" as="sourcePoint" />
            <mxPoint x="460" y="-400" as="targetPoint" />
            <Array as="points">
              <mxPoint x="610" y="-380" />
            </Array>
          </mxGeometry>
        </mxCell>
        <mxCell id="J_zF-gnnnVMiaLs1HceT-24" value="" style="endArrow=classic;html=1;rounded=0;exitX=0.5;exitY=1;exitDx=0;exitDy=0;exitPerimeter=0;entryX=0.027;entryY=0.36;entryDx=0;entryDy=0;entryPerimeter=0;curved=1;" parent="1" source="4s18IUHOSjI8h1o8mU8m-17" target="4s18IUHOSjI8h1o8mU8m-19" edge="1">
          <mxGeometry width="50" height="50" relative="1" as="geometry">
            <mxPoint x="410" y="-450" as="sourcePoint" />
            <mxPoint x="460" y="-500" as="targetPoint" />
            <Array as="points">
              <mxPoint x="540" y="-313" />
            </Array>
          </mxGeometry>
        </mxCell>
        <mxCell id="PqudGx3bNvPuZtcBhq6t-2" value="" style="endArrow=classic;html=1;rounded=0;entryX=0.397;entryY=0.973;entryDx=0;entryDy=0;entryPerimeter=0;curved=1;exitX=0.981;exitY=0.4;exitDx=0;exitDy=0;exitPerimeter=0;" edge="1" parent="1" source="4s18IUHOSjI8h1o8mU8m-19" target="4s18IUHOSjI8h1o8mU8m-18">
          <mxGeometry width="50" height="50" relative="1" as="geometry">
            <mxPoint x="660" y="-300" as="sourcePoint" />
            <mxPoint x="430" y="-400" as="targetPoint" />
            <Array as="points">
              <mxPoint x="680" y="-330" />
            </Array>
          </mxGeometry>
        </mxCell>
        <mxCell id="PqudGx3bNvPuZtcBhq6t-3" value="" style="endArrow=classic;html=1;rounded=0;entryX=1;entryY=0.5;entryDx=0;entryDy=0;entryPerimeter=0;exitX=0.5;exitY=1;exitDx=0;exitDy=0;exitPerimeter=0;curved=1;" edge="1" parent="1" source="4s18IUHOSjI8h1o8mU8m-18" target="4s18IUHOSjI8h1o8mU8m-19">
          <mxGeometry width="50" height="50" relative="1" as="geometry">
            <mxPoint x="380" y="-350" as="sourcePoint" />
            <mxPoint x="430" y="-400" as="targetPoint" />
            <Array as="points">
              <mxPoint x="700" y="-310" />
            </Array>
          </mxGeometry>
        </mxCell>
      </root>
    </mxGraphModel>
  </diagram>
</mxfile>
